<?xml version="1.0" encoding="UTF-8" standalone="no"?><!-- Generator: Gravit.io --><svg xmlns="http://www.w3.org/2000/svg" xmlns:xlink="http://www.w3.org/1999/xlink" style="isolation:isolate" viewBox="0 0 560 315" width="560pt" height="315pt"><defs><clipPath id="_clipPath_OlLcksJUuPsnH0unVB0og5sMmtGUQsPa"><rect width="560" height="315"/></clipPath></defs><g clip-path="url(#_clipPath_OlLcksJUuPsnH0unVB0og5sMmtGUQsPa)"><path d=" M 297.752 131.175 L 298.523 132.006 L 298.523 132.006 Q 298.469 132.063 298.017 132.435 L 298.017 132.435 L 298.017 132.435 Q 297.565 132.807 296.803 133.294 L 296.803 133.294 L 296.803 133.294 Q 296.041 133.78 295.034 134.268 L 295.034 134.268 L 295.034 134.268 Q 294.026 134.755 292.877 135.017 L 292.877 135.017 L 292.877 135.017 Q 291.006 135.444 289.366 135.124 L 289.366 135.124 L 289.366 135.124 Q 287.727 134.804 286.422 133.838 L 286.422 133.838 L 286.422 133.838 Q 285.116 132.871 284.177 131.306 L 284.177 131.306 L 284.177 131.306 Q 283.239 129.742 282.768 127.678 L 282.768 127.678 L 282.768 127.678 Q 282.317 125.7 282.265 123.217 L 282.265 123.217 L 282.265 123.217 Q 282.214 120.734 282.428 118.045 L 282.428 118.045 L 282.428 118.045 Q 282.643 115.356 283.059 112.62 L 283.059 112.62 L 283.059 112.62 Q 283.476 109.885 283.97 107.389 L 283.97 107.389 L 283.97 107.389 Q 284.463 104.894 284.949 102.803 L 284.949 102.803 L 284.949 102.803 Q 285.434 100.712 285.807 99.306 L 285.807 99.306 L 285.807 99.306 Q 284.926 100.939 283.8 103.065 L 283.8 103.065 L 283.8 103.065 Q 282.674 105.19 281.423 107.701 L 281.423 107.701 L 281.423 107.701 Q 280.172 110.213 278.846 113.033 L 278.846 113.033 L 278.846 113.033 Q 277.52 115.853 276.206 118.871 L 276.206 118.871 L 276.206 118.871 Q 274.892 121.889 273.638 125.028 L 273.638 125.028 L 273.638 125.028 Q 272.385 128.167 271.309 131.299 L 271.309 131.299 L 270.211 131.191 L 270.211 131.191 Q 269.739 127.651 269.694 124.07 L 269.694 124.07 L 269.694 124.07 Q 269.65 120.489 269.854 117.12 L 269.854 117.12 L 269.854 117.12 Q 270.059 113.75 270.458 110.739 L 270.458 110.739 L 270.458 110.739 Q 270.856 107.728 271.293 105.324 L 271.293 105.324 L 271.293 105.324 Q 270.314 107.606 269.421 110.215 L 269.421 110.215 L 269.421 110.215 Q 268.528 112.824 267.632 115.568 L 267.632 115.568 L 267.632 115.568 Q 266.736 118.312 265.76 121.097 L 265.76 121.097 L 265.76 121.097 Q 264.785 123.881 263.637 126.504 L 263.637 126.504 L 263.637 126.504 Q 262.49 129.126 261.094 131.492 L 261.094 131.492 L 261.094 131.492 Q 259.698 133.857 257.952 135.766 L 257.952 135.766 L 257.952 135.766 Q 256.205 137.675 254.044 139.04 L 254.044 139.04 L 254.044 139.04 Q 251.883 140.406 249.203 141.017 L 249.203 141.017 L 249.203 141.017 Q 247.14 141.487 245.319 141.254 L 245.319 141.254 L 245.319 141.254 Q 243.498 141.02 242.052 140.22 L 242.052 140.22 L 242.052 140.22 Q 240.605 139.42 239.626 138.122 L 239.626 138.122 L 239.626 138.122 Q 238.648 136.823 238.264 135.143 L 238.264 135.143 L 238.264 135.143 Q 237.891 133.505 238.109 132.057 L 238.109 132.057 L 238.109 132.057 Q 238.327 130.609 238.964 129.379 L 238.964 129.379 L 238.964 129.379 Q 239.6 128.148 240.587 127.129 L 240.587 127.129 L 240.587 127.129 Q 241.574 126.109 242.739 125.329 L 242.739 125.329 L 242.739 125.329 Q 243.903 124.549 245.158 124.016 L 245.158 124.016 L 245.158 124.016 Q 246.413 123.484 247.604 123.213 L 247.604 123.213 L 247.604 123.213 Q 250.071 122.65 252.459 122.721 L 252.459 122.721 L 252.459 122.721 Q 254.847 122.791 257.271 123.805 L 257.271 123.805 L 256.716 124.804 L 256.716 124.804 Q 256.69 124.788 256.073 124.537 L 256.073 124.537 L 256.073 124.537 Q 255.457 124.286 254.355 124.067 L 254.355 124.067 L 254.355 124.067 Q 253.253 123.848 251.693 123.824 L 251.693 123.824 L 251.693 123.824 Q 250.132 123.799 248.239 124.231 L 248.239 124.231 L 248.239 124.231 Q 246.41 124.648 244.809 125.528 L 244.809 125.528 L 244.809 125.528 Q 243.209 126.408 242.126 127.695 L 242.126 127.695 L 242.126 127.695 Q 241.044 128.983 240.599 130.662 L 240.599 130.662 L 240.599 130.662 Q 240.154 132.34 240.615 134.361 L 240.615 134.361 L 240.615 134.361 Q 240.944 135.807 241.789 136.912 L 241.789 136.912 L 241.789 136.912 Q 242.634 138.018 243.84 138.694 L 243.84 138.694 L 243.84 138.694 Q 245.046 139.369 246.566 139.56 L 246.566 139.56 L 246.566 139.56 Q 248.086 139.75 249.788 139.362 L 249.788 139.362 L 249.788 139.362 Q 252.34 138.78 254.433 137.162 L 254.433 137.162 L 254.433 137.162 Q 256.525 135.543 258.272 133.198 L 258.272 133.198 L 258.272 133.198 Q 260.02 130.853 261.467 127.927 L 261.467 127.927 L 261.467 127.927 Q 262.914 125.001 264.15 121.833 L 264.15 121.833 L 264.15 121.833 Q 265.385 118.665 266.469 115.375 L 266.469 115.375 L 266.469 115.375 Q 267.554 112.084 268.578 109.02 L 268.578 109.02 L 268.578 109.02 Q 269.602 105.956 270.619 103.251 L 270.619 103.251 L 270.619 103.251 Q 271.635 100.547 272.736 98.506 L 272.736 98.506 L 273.824 98.862 L 273.824 98.862 Q 273.538 101.926 273.35 104.24 L 273.35 104.24 L 273.35 104.24 Q 273.162 106.554 273.035 108.305 L 273.035 108.305 L 273.035 108.305 Q 272.909 110.057 272.83 111.328 L 272.83 111.328 L 272.83 111.328 Q 272.751 112.599 272.709 113.593 L 272.709 113.593 L 272.709 113.593 Q 272.667 114.588 272.637 115.389 L 272.637 115.389 L 272.637 115.389 Q 272.607 116.19 272.575 116.98 L 272.575 116.98 L 272.575 116.98 Q 272.543 117.771 272.477 118.659 L 272.477 118.659 L 272.477 118.659 Q 272.411 119.546 272.299 120.724 L 272.299 120.724 L 272.299 120.724 Q 272.187 121.902 272.025 123.449 L 272.025 123.449 L 272.025 123.449 Q 271.864 124.997 271.608 127.113 L 271.608 127.113 L 271.608 127.113 Q 272.778 124.005 274.064 120.959 L 274.064 120.959 L 274.064 120.959 Q 275.35 117.914 276.664 115.041 L 276.664 115.041 L 276.664 115.041 Q 277.978 112.168 279.265 109.525 L 279.265 109.525 L 279.265 109.525 Q 280.553 106.882 281.723 104.601 L 281.723 104.601 L 281.723 104.601 Q 282.892 102.321 283.886 100.449 L 283.886 100.449 L 283.886 100.449 Q 284.88 98.578 285.627 97.244 L 285.627 97.244 L 285.627 97.244 Q 286.375 95.91 286.798 95.165 L 286.798 95.165 L 286.798 95.165 Q 287.221 94.419 287.237 94.393 L 287.237 94.393 L 288.281 94.849 L 288.281 94.849 Q 287.734 98.24 287.211 101.638 L 287.211 101.638 L 287.211 101.638 Q 286.688 105.035 286.225 108.251 L 286.225 108.251 L 286.225 108.251 Q 285.761 111.467 285.408 114.434 L 285.408 114.434 L 285.408 114.434 Q 285.056 117.401 284.878 119.958 L 284.878 119.958 L 284.878 119.958 Q 284.701 122.516 284.735 124.578 L 284.735 124.578 L 284.735 124.578 Q 284.769 126.64 285.089 128.044 L 285.089 128.044 L 285.089 128.044 Q 285.467 129.703 286.167 130.953 L 286.167 130.953 L 286.167 130.953 Q 286.866 132.204 287.823 132.97 L 287.823 132.97 L 287.823 132.97 Q 288.781 133.736 289.991 133.986 L 289.991 133.986 L 289.991 133.986 Q 291.2 134.236 292.583 133.92 L 292.583 133.92 L 292.583 133.92 Q 293.625 133.683 294.56 133.223 L 294.56 133.223 L 294.56 133.223 Q 295.496 132.764 296.199 132.313 L 296.199 132.313 L 296.199 132.313 Q 296.901 131.861 297.316 131.521 L 297.316 131.521 L 297.316 131.521 Q 297.731 131.18 297.752 131.175 L 297.752 131.175 L 297.752 131.175 Z  M 306.169 107.35 L 306.917 107.492 L 306.917 107.492 Q 306.767 108.108 306.471 109.116 L 306.471 109.116 L 306.471 109.116 Q 306.175 110.123 305.845 111.328 L 305.845 111.328 L 305.845 111.328 Q 305.516 112.533 305.198 113.836 L 305.198 113.836 L 305.198 113.836 Q 304.88 115.139 304.656 116.365 L 304.656 116.365 L 304.656 116.365 Q 304.432 117.591 304.349 118.65 L 304.349 118.65 L 304.349 118.65 Q 304.266 119.71 304.422 120.39 L 304.422 120.39 L 304.422 120.39 Q 304.577 121.071 304.889 121.212 L 304.889 121.212 L 304.889 121.212 Q 305.201 121.354 305.626 121.257 L 305.626 121.257 L 305.626 121.257 Q 306.243 121.116 306.809 120.607 L 306.809 120.607 L 306.809 120.607 Q 307.375 120.097 307.872 119.38 L 307.872 119.38 L 307.872 119.38 Q 308.368 118.662 308.799 117.803 L 308.799 117.803 L 308.799 117.803 Q 309.23 116.944 309.583 116.092 L 309.583 116.092 L 309.583 116.092 Q 309.937 115.239 310.21 114.472 L 310.21 114.472 L 310.21 114.472 Q 310.482 113.705 310.673 113.169 L 310.673 113.169 L 311.575 113.59 L 311.575 113.59 Q 311.368 114.353 311.059 115.252 L 311.059 115.252 L 311.059 115.252 Q 310.749 116.15 310.346 117.081 L 310.346 117.081 L 310.346 117.081 Q 309.943 118.012 309.432 118.912 L 309.432 118.912 L 309.432 118.912 Q 308.921 119.812 308.297 120.558 L 308.297 120.558 L 308.297 120.558 Q 307.673 121.305 306.921 121.834 L 306.921 121.834 L 306.921 121.834 Q 306.169 122.364 305.297 122.562 L 305.297 122.562 L 305.297 122.562 Q 304.021 122.854 303.251 122.224 L 303.251 122.224 L 303.251 122.224 Q 302.481 121.594 302.204 120.381 L 302.204 120.381 L 302.204 120.381 Q 302.185 120.296 302.13 120.007 L 302.13 120.007 L 302.13 120.007 Q 302.075 119.717 302.079 119.537 L 302.079 119.537 L 302.079 119.537 Q 301.321 121.12 300.552 122.213 L 300.552 122.213 L 300.552 122.213 Q 299.783 123.305 298.996 124.022 L 298.996 124.022 L 298.996 124.022 Q 298.208 124.739 297.414 125.132 L 297.414 125.132 L 297.414 125.132 Q 296.62 125.526 295.854 125.701 L 295.854 125.701 L 295.854 125.701 Q 295.046 125.885 294.273 125.782 L 294.273 125.782 L 294.273 125.782 Q 293.5 125.678 292.841 125.292 L 292.841 125.292 L 292.841 125.292 Q 292.182 124.905 291.704 124.231 L 291.704 124.231 L 291.704 124.231 Q 291.226 123.557 291.003 122.578 L 291.003 122.578 L 291.003 122.578 Q 290.726 121.366 290.912 119.679 L 290.912 119.679 L 290.912 119.679 Q 291.098 117.992 292.068 115.869 L 292.068 115.869 L 292.068 115.869 Q 292.884 114.049 293.907 112.697 L 293.907 112.697 L 293.907 112.697 Q 294.93 111.345 296.005 110.417 L 296.005 110.417 L 296.005 110.417 Q 297.08 109.49 298.123 108.961 L 298.123 108.961 L 298.123 108.961 Q 299.166 108.432 300.038 108.233 L 300.038 108.233 L 300.038 108.233 Q 301.995 107.787 303.142 108.208 L 303.142 108.208 L 303.142 108.208 Q 304.29 108.628 304.808 109.92 L 304.808 109.92 L 304.808 109.92 Q 305.112 109.291 305.459 108.653 L 305.459 108.653 L 305.459 108.653 Q 305.806 108.014 306.169 107.35 L 306.169 107.35 L 306.169 107.35 Z  M 302.231 117.064 L 302.231 117.064 L 302.231 117.064 Q 302.405 116.554 302.652 115.771 L 302.652 115.771 L 302.652 115.771 Q 302.898 114.987 303.178 114.152 L 303.178 114.152 L 303.178 114.152 Q 303.457 113.316 303.727 112.538 L 303.727 112.538 L 303.727 112.538 Q 303.997 111.761 304.21 111.22 L 304.21 111.22 L 304.21 111.22 Q 304.166 111.028 304.016 110.615 L 304.016 110.615 L 304.016 110.615 Q 303.866 110.202 303.532 109.819 L 303.532 109.819 L 303.532 109.819 Q 303.199 109.437 302.615 109.234 L 302.615 109.234 L 302.615 109.234 Q 302.032 109.031 301.118 109.24 L 301.118 109.24 L 301.118 109.24 Q 300.458 109.39 299.685 109.779 L 299.685 109.779 L 299.685 109.779 Q 298.913 110.168 298.097 110.858 L 298.097 110.858 L 298.097 110.858 Q 297.281 111.547 296.482 112.557 L 296.482 112.557 L 296.482 112.557 Q 295.683 113.567 294.971 114.96 L 294.971 114.96 L 294.971 114.96 Q 293.906 117.06 293.514 119.018 L 293.514 119.018 L 293.514 119.018 Q 293.121 120.976 293.446 122.401 L 293.446 122.401 L 293.446 122.401 Q 293.723 123.614 294.426 124.147 L 294.426 124.147 L 294.426 124.147 Q 295.129 124.68 296.15 124.447 L 296.15 124.447 L 296.15 124.447 Q 297.32 124.18 298.222 123.427 L 298.222 123.427 L 298.222 123.427 Q 299.124 122.673 299.828 121.639 L 299.828 121.639 L 299.828 121.639 Q 300.533 120.606 301.11 119.411 L 301.11 119.411 L 301.11 119.411 Q 301.688 118.217 302.231 117.064 Z  M 323.307 110.288 L 324.23 110.704 L 324.23 110.704 Q 324.018 111.245 323.764 112.142 L 323.764 112.142 L 323.764 112.142 Q 323.51 113.039 323.146 114.095 L 323.146 114.095 L 323.146 114.095 Q 322.783 115.151 322.31 116.266 L 322.31 116.266 L 322.31 116.266 Q 321.837 117.381 321.193 118.333 L 321.193 118.333 L 321.193 118.333 Q 320.549 119.286 319.703 119.993 L 319.703 119.993 L 319.703 119.993 Q 318.858 120.7 317.773 120.948 L 317.773 120.948 L 317.773 120.948 Q 317.177 121.084 316.604 121.024 L 316.604 121.024 L 316.604 121.024 Q 316.031 120.965 315.54 120.674 L 315.54 120.674 L 315.54 120.674 Q 315.048 120.383 314.686 119.873 L 314.686 119.873 L 314.686 119.873 Q 314.323 119.363 314.149 118.597 L 314.149 118.597 L 314.149 118.597 Q 313.911 117.555 314.066 116.322 L 314.066 116.322 L 314.066 116.322 Q 314.222 115.09 314.532 113.9 L 314.532 113.9 L 314.532 113.9 Q 314.842 112.711 315.194 111.702 L 315.194 111.702 L 315.194 111.702 Q 315.546 110.693 315.68 110.103 L 315.68 110.103 L 315.68 110.103 Q 315.814 109.513 315.726 109.13 L 315.726 109.13 L 315.726 109.13 Q 315.663 108.854 315.434 108.682 L 315.434 108.682 L 315.434 108.682 Q 315.205 108.511 314.893 108.369 L 314.893 108.369 L 314.893 108.369 Q 314.581 108.228 314.243 108.07 L 314.243 108.07 L 314.243 108.07 Q 313.905 107.912 313.641 107.637 L 313.641 107.637 L 313.641 107.637 Q 313.303 108.609 312.949 109.607 L 312.949 109.607 L 312.949 109.607 Q 312.629 110.463 312.266 111.519 L 312.266 111.519 L 312.266 111.519 Q 311.903 112.576 311.575 113.59 L 311.575 113.59 L 310.673 113.169 L 313.6 105.006 L 314.289 105.184 L 314.289 105.184 Q 314.276 105.322 314.243 105.62 L 314.243 105.62 L 314.243 105.62 Q 314.211 105.918 314.283 106.237 L 314.283 106.237 L 314.283 106.237 Q 314.337 106.471 314.462 106.678 L 314.462 106.678 L 314.462 106.678 Q 314.588 106.884 314.865 107.022 L 314.865 107.022 L 314.865 107.022 Q 315.891 107.594 316.474 107.897 L 316.474 107.897 L 316.474 107.897 Q 317.058 108.2 317.337 108.394 L 317.337 108.394 L 317.337 108.394 Q 317.616 108.587 317.706 108.735 L 317.706 108.735 L 317.706 108.735 Q 317.796 108.882 317.854 109.137 L 317.854 109.137 L 317.854 109.137 Q 317.912 109.393 317.909 109.774 L 317.909 109.774 L 317.909 109.774 Q 317.907 110.155 317.821 110.711 L 317.821 110.711 L 317.821 110.711 Q 317.735 111.268 317.542 112.039 L 317.542 112.039 L 317.542 112.039 Q 317.349 112.81 317.026 113.846 L 317.026 113.846 L 317.026 113.846 Q 316.833 114.472 316.653 115.106 L 316.653 115.106 L 316.653 115.106 Q 316.473 115.74 316.359 116.37 L 316.359 116.37 L 316.359 116.37 Q 316.246 117 316.228 117.608 L 316.228 117.608 L 316.228 117.608 Q 316.21 118.216 316.331 118.748 L 316.331 118.748 L 316.331 118.748 Q 316.423 119.152 316.596 119.37 L 316.596 119.37 L 316.596 119.37 Q 316.769 119.588 316.99 119.672 L 316.99 119.672 L 316.99 119.672 Q 317.21 119.756 317.443 119.748 L 317.443 119.748 L 317.443 119.748 Q 317.676 119.739 317.889 119.691 L 317.889 119.691 L 317.889 119.691 Q 318.591 119.531 319.187 118.958 L 319.187 118.958 L 319.187 118.958 Q 319.784 118.386 320.304 117.574 L 320.304 117.574 L 320.304 117.574 Q 320.823 116.762 321.259 115.778 L 321.259 115.778 L 321.259 115.778 Q 321.695 114.795 322.07 113.792 L 322.07 113.792 L 322.07 113.792 Q 322.446 112.789 322.753 111.88 L 322.753 111.88 L 322.753 111.88 Q 323.06 110.971 323.307 110.288 L 323.307 110.288 L 323.307 110.288 Z  M 327.336 103.327 L 325.966 110.174 L 325.966 110.174 Q 326.723 108.39 327.645 106.692 L 327.645 106.692 L 327.645 106.692 Q 328.566 104.994 329.593 103.607 L 329.593 103.607 L 329.593 103.607 Q 330.619 102.221 331.766 101.265 L 331.766 101.265 L 331.766 101.265 Q 332.913 100.31 334.147 100.029 L 334.147 100.029 L 334.147 100.029 Q 334.913 99.854 335.455 99.977 L 335.455 99.977 L 335.455 99.977 Q 335.998 100.099 336.367 100.395 L 336.367 100.395 L 336.367 100.395 Q 336.737 100.691 336.958 101.122 L 336.958 101.122 L 336.958 101.122 Q 337.179 101.552 337.281 101.999 L 337.281 101.999 L 337.281 101.999 Q 337.427 102.637 337.352 103.437 L 337.352 103.437 L 337.352 103.437 Q 337.277 104.238 336.95 105.107 L 336.95 105.107 L 336.95 105.107 Q 336.622 105.976 336.014 106.842 L 336.014 106.842 L 336.014 106.842 Q 335.406 107.707 334.469 108.503 L 334.469 108.503 L 334.469 108.503 Q 334.829 109.003 335.008 109.79 L 335.008 109.79 L 335.008 109.79 Q 335.12 110.279 335.106 110.808 L 335.106 110.808 L 335.106 110.808 Q 335.092 111.337 335.055 111.86 L 335.055 111.86 L 335.055 111.86 Q 335.018 112.383 335.004 112.912 L 335.004 112.912 L 335.004 112.912 Q 334.991 113.441 335.107 113.951 L 335.107 113.951 L 335.107 113.951 Q 335.165 114.207 335.25 114.433 L 335.25 114.433 L 335.25 114.433 Q 335.336 114.66 335.475 114.83 L 335.475 114.83 L 335.475 114.83 Q 335.614 114.999 335.843 115.07 L 335.843 115.07 L 335.843 115.07 Q 336.072 115.141 336.434 115.058 L 336.434 115.058 L 336.434 115.058 Q 336.859 114.961 337.332 114.484 L 337.332 114.484 L 337.332 114.484 Q 337.805 114.007 338.291 113.292 L 338.291 113.292 L 338.291 113.292 Q 338.777 112.577 339.253 111.674 L 339.253 111.674 L 339.253 111.674 Q 339.73 110.771 340.157 109.801 L 340.157 109.801 L 340.157 109.801 Q 340.585 108.831 340.972 107.881 L 340.972 107.881 L 340.972 107.881 Q 341.36 106.931 341.663 106.101 L 341.663 106.101 L 342.586 106.517 L 342.586 106.517 Q 341.87 108.381 341.173 110.084 L 341.173 110.084 L 341.173 110.084 Q 340.476 111.787 339.697 113.128 L 339.697 113.128 L 339.697 113.128 Q 338.917 114.47 338.004 115.372 L 338.004 115.372 L 338.004 115.372 Q 337.091 116.273 335.964 116.531 L 335.964 116.531 L 335.964 116.531 Q 335.517 116.632 335.009 116.614 L 335.009 116.614 L 335.009 116.614 Q 334.502 116.595 334.043 116.398 L 334.043 116.398 L 334.043 116.398 Q 333.584 116.201 333.222 115.791 L 333.222 115.791 L 333.222 115.791 Q 332.86 115.381 332.705 114.701 L 332.705 114.701 L 332.705 114.701 Q 332.52 113.892 332.677 112.715 L 332.677 112.715 L 332.677 112.715 Q 332.806 111.612 332.818 110.882 L 332.818 110.882 L 332.818 110.882 Q 332.831 110.152 332.745 109.679 L 332.745 109.679 L 332.745 109.679 Q 332.323 109.887 331.843 110.086 L 331.843 110.086 L 331.843 110.086 Q 331.362 110.286 330.915 110.387 L 330.915 110.387 L 330.915 110.387 Q 330.681 110.441 330.393 110.451 L 330.393 110.451 L 330.393 110.451 Q 330.104 110.461 329.841 110.386 L 329.841 110.386 L 329.841 110.386 Q 329.578 110.312 329.372 110.146 L 329.372 110.146 L 329.372 110.146 Q 329.167 109.981 329.094 109.662 L 329.094 109.662 L 329.094 109.662 Q 329.021 109.343 329.158 109.009 L 329.158 109.009 L 329.158 109.009 Q 329.294 108.676 329.594 108.373 L 329.594 108.373 L 329.594 108.373 Q 329.895 108.069 330.355 107.83 L 330.355 107.83 L 330.355 107.83 Q 330.815 107.591 331.41 107.455 L 331.41 107.455 L 331.41 107.455 Q 332.516 107.203 333.439 107.619 L 333.439 107.619 L 333.439 107.619 Q 334.069 106.849 334.409 106.033 L 334.409 106.033 L 334.409 106.033 Q 334.748 105.217 334.875 104.495 L 334.875 104.495 L 334.875 104.495 Q 335.001 103.772 334.988 103.227 L 334.988 103.227 L 334.988 103.227 Q 334.976 102.682 334.917 102.426 L 334.917 102.426 L 334.917 102.426 Q 334.757 101.724 334.442 101.517 L 334.442 101.517 L 334.442 101.517 Q 334.126 101.309 333.764 101.392 L 333.764 101.392 L 333.764 101.392 Q 333.083 101.547 332.345 102.185 L 332.345 102.185 L 332.345 102.185 Q 331.607 102.823 330.878 103.795 L 330.878 103.795 L 330.878 103.795 Q 330.148 104.767 329.43 105.983 L 329.43 105.983 L 329.43 105.983 Q 328.711 107.198 328.06 108.51 L 328.06 108.51 L 328.06 108.51 Q 327.408 109.822 326.825 111.141 L 326.825 111.141 L 326.825 111.141 Q 326.242 112.46 325.768 113.62 L 325.768 113.62 L 325.768 113.62 Q 325.372 114.829 325.081 115.858 L 325.081 115.858 L 325.081 115.858 Q 324.79 116.886 324.6 117.623 L 324.6 117.623 L 324.6 117.623 Q 324.41 118.36 324.296 118.744 L 324.296 118.744 L 324.296 118.744 Q 324.182 119.128 324.137 119.027 L 324.137 119.027 L 321.905 118.954 L 321.905 118.954 Q 323.11 112.66 324.379 106.351 L 324.379 106.351 L 324.379 106.351 Q 325.647 100.043 327.163 93.544 L 327.163 93.544 L 327.163 93.544 Q 327.395 92.596 327.707 91.462 L 327.707 91.462 L 327.707 91.462 Q 328.019 90.328 328.416 89.175 L 328.416 89.175 L 328.416 89.175 Q 328.813 88.021 329.307 86.902 L 329.307 86.902 L 329.307 86.902 Q 329.801 85.782 330.389 84.876 L 330.389 84.876 L 330.389 84.876 Q 330.977 83.97 331.664 83.354 L 331.664 83.354 L 331.664 83.354 Q 332.352 82.739 333.139 82.559 L 333.139 82.559 L 333.139 82.559 Q 333.968 82.37 334.596 82.719 L 334.596 82.719 L 334.596 82.719 Q 335.224 83.068 335.457 84.089 L 335.457 84.089 L 335.457 84.089 Q 335.777 85.493 335.48 87.675 L 335.48 87.675 L 335.48 87.675 Q 335.184 89.858 334.209 92.452 L 334.209 92.452 L 334.209 92.452 Q 333.234 95.046 331.538 97.86 L 331.538 97.86 L 331.538 97.86 Q 329.842 100.675 327.336 103.327 L 327.336 103.327 L 327.336 103.327 Z  M 327.806 101.072 L 327.806 101.072 L 327.806 101.072 Q 329.924 98.486 331.302 95.945 L 331.302 95.945 L 331.302 95.945 Q 332.681 93.404 333.436 91.173 L 333.436 91.173 L 333.436 91.173 Q 334.192 88.943 334.375 87.144 L 334.375 87.144 L 334.375 87.144 Q 334.557 85.346 334.3 84.219 L 334.3 84.219 L 334.3 84.219 Q 334.228 83.9 334.014 83.747 L 334.014 83.747 L 334.014 83.747 Q 333.8 83.595 333.438 83.677 L 333.438 83.677 L 333.438 83.677 Q 332.651 83.857 331.999 84.822 L 331.999 84.822 L 331.999 84.822 Q 331.346 85.788 330.701 87.814 L 330.701 87.814 L 330.701 87.814 Q 330.056 89.841 329.364 93.087 L 329.364 93.087 L 329.364 93.087 Q 328.672 96.332 327.806 101.072 Z  M 332.421 108.746 L 332.421 108.746 L 332.421 108.746 Q 332.261 108.537 331.975 108.412 L 331.975 108.412 L 331.975 108.412 Q 331.689 108.287 331.392 108.354 L 331.392 108.354 L 331.392 108.354 Q 330.775 108.495 330.365 108.857 L 330.365 108.857 L 330.365 108.857 Q 329.955 109.219 330.009 109.453 L 330.009 109.453 L 330.009 109.453 Q 330.047 109.623 330.262 109.63 L 330.262 109.63 L 330.262 109.63 Q 330.476 109.637 330.646 109.599 L 330.646 109.599 L 330.646 109.599 Q 331.199 109.472 331.638 109.238 L 331.638 109.238 L 331.638 109.238 Q 332.077 109.004 332.421 108.746 Z  M 346.492 95.781 L 346.492 95.781 L 346.492 95.781 Q 346.429 95.997 346.31 96.259 L 346.31 96.259 L 346.31 96.259 Q 346.191 96.521 346.097 96.845 L 346.097 96.845 L 346.097 96.845 Q 346.003 97.168 345.973 97.578 L 345.973 97.578 L 345.973 97.578 Q 345.943 97.987 346.065 98.519 L 346.065 98.519 L 346.065 98.519 Q 346.166 98.966 346.564 99.68 L 346.564 99.68 L 346.564 99.68 Q 346.962 100.395 347.443 101.326 L 347.443 101.326 L 347.443 101.326 Q 347.924 102.257 348.412 103.365 L 348.412 103.365 L 348.412 103.365 Q 348.899 104.473 349.181 105.707 L 349.181 105.707 L 349.181 105.707 Q 349.593 107.515 349.419 109.009 L 349.419 109.009 L 349.419 109.009 Q 349.245 110.503 348.66 111.666 L 348.66 111.666 L 348.66 111.666 Q 350.115 110.394 351.33 108.361 L 351.33 108.361 L 351.33 108.361 Q 352.544 106.327 353.574 103.385 L 353.574 103.385 L 354.442 103.858 L 354.442 103.858 Q 353.872 105.577 353.05 107.319 L 353.05 107.319 L 353.05 107.319 Q 352.228 109.062 351.115 110.558 L 351.115 110.558 L 351.115 110.558 Q 350.002 112.054 348.574 113.151 L 348.574 113.151 L 348.574 113.151 Q 347.146 114.249 345.359 114.656 L 345.359 114.656 L 345.359 114.656 Q 343.764 115.02 342.496 114.515 L 342.496 114.515 L 342.496 114.515 Q 341.229 114.01 340.629 112.558 L 340.629 112.558 L 341.361 112.234 L 341.361 112.234 Q 341.39 112.362 341.573 112.622 L 341.573 112.622 L 341.573 112.622 Q 341.755 112.883 342.073 113.101 L 342.073 113.101 L 342.073 113.101 Q 342.392 113.319 342.876 113.432 L 342.876 113.432 L 342.876 113.432 Q 343.361 113.546 343.999 113.4 L 343.999 113.4 L 343.999 113.4 Q 344.85 113.206 345.419 112.662 L 345.419 112.662 L 345.419 112.662 Q 345.989 112.118 346.332 111.369 L 346.332 111.369 L 346.332 111.369 Q 346.676 110.619 346.83 109.723 L 346.83 109.723 L 346.83 109.723 Q 346.983 108.826 346.986 107.908 L 346.986 107.908 L 346.986 107.908 Q 346.99 106.99 346.885 106.141 L 346.885 106.141 L 346.885 106.141 Q 346.781 105.292 346.626 104.611 L 346.626 104.611 L 346.626 104.611 Q 346.471 103.931 346.229 103.113 L 346.229 103.113 L 346.229 103.113 Q 345.986 102.296 345.75 101.556 L 345.75 101.556 L 345.75 101.556 Q 345.514 100.815 345.332 100.264 L 345.332 100.264 L 345.332 100.264 Q 345.151 99.712 345.112 99.542 L 345.112 99.542 L 345.102 99.499 L 345.102 99.499 Q 344.894 99.86 344.642 100.522 L 344.642 100.522 L 344.642 100.522 Q 344.39 101.183 344.109 101.963 L 344.109 101.963 L 344.109 101.963 Q 343.828 102.743 343.552 103.545 L 343.552 103.545 L 343.552 103.545 Q 343.276 104.346 343.056 105 L 343.056 105 L 343.056 105 Q 342.836 105.655 342.698 106.078 L 342.698 106.078 L 342.698 106.078 Q 342.56 106.501 342.564 106.522 L 342.564 106.522 L 341.663 106.101 L 341.663 106.101 Q 341.679 106.075 341.986 105.066 L 341.986 105.066 L 341.986 105.066 Q 342.293 104.056 342.82 102.492 L 342.82 102.492 L 342.82 102.492 Q 343.347 100.929 344.03 99.017 L 344.03 99.017 L 344.03 99.017 Q 344.713 97.104 345.481 95.273 L 345.481 95.273 L 346.492 95.781 L 346.492 95.781 Z  M 370.44 95.712 L 370.44 95.712 L 370.44 95.712 Q 370.892 94.848 371.411 94.081 L 371.411 94.081 L 371.411 94.081 Q 371.93 93.314 372.487 92.717 L 372.487 92.717 L 372.487 92.717 Q 373.045 92.12 373.638 91.727 L 373.638 91.727 L 373.638 91.727 Q 374.231 91.334 374.826 91.199 L 374.826 91.199 L 374.826 91.199 Q 375.294 91.092 375.788 91.147 L 375.788 91.147 L 375.788 91.147 Q 376.281 91.202 376.718 91.45 L 376.718 91.45 L 376.718 91.45 Q 377.155 91.697 377.484 92.159 L 377.484 92.159 L 377.484 92.159 Q 377.813 92.621 377.973 93.323 L 377.973 93.323 L 377.973 93.323 Q 378.206 94.343 378.155 95.396 L 378.155 95.396 L 378.155 95.396 Q 378.104 96.448 377.892 97.481 L 377.892 97.481 L 377.892 97.481 Q 377.68 98.513 377.401 99.495 L 377.401 99.495 L 377.401 99.495 Q 377.121 100.476 376.877 101.37 L 376.877 101.37 L 376.877 101.37 Q 376.634 102.265 376.52 103.041 L 376.52 103.041 L 376.52 103.041 Q 376.406 103.816 376.542 104.412 L 376.542 104.412 L 376.542 104.412 Q 376.649 104.88 376.939 105.026 L 376.939 105.026 L 376.939 105.026 Q 377.23 105.172 377.506 105.109 L 377.506 105.109 L 377.506 105.109 Q 378.059 104.983 378.669 104.173 L 378.669 104.173 L 378.669 104.173 Q 379.278 103.363 379.88 102.174 L 379.88 102.174 L 379.88 102.174 Q 380.482 100.985 381.048 99.591 L 381.048 99.591 L 381.048 99.591 Q 381.614 98.198 382.117 96.875 L 382.117 96.875 L 383.019 97.296 L 383.019 97.296 Q 382.844 97.806 382.576 98.639 L 382.576 98.639 L 382.576 98.639 Q 382.307 99.472 381.924 100.443 L 381.924 100.443 L 381.924 100.443 Q 381.542 101.414 381.057 102.431 L 381.057 102.431 L 381.057 102.431 Q 380.573 103.448 379.976 104.311 L 379.976 104.311 L 379.976 104.311 Q 379.378 105.175 378.67 105.795 L 378.67 105.795 L 378.67 105.795 Q 377.961 106.415 377.153 106.6 L 377.153 106.6 L 377.153 106.6 Q 376.706 106.701 376.262 106.668 L 376.262 106.668 L 376.262 106.668 Q 375.818 106.635 375.434 106.421 L 375.434 106.421 L 375.434 106.421 Q 375.049 106.207 374.751 105.782 L 374.751 105.782 L 374.751 105.782 Q 374.453 105.358 374.298 104.677 L 374.298 104.677 L 374.298 104.677 Q 374.084 103.742 374.2 102.776 L 374.2 102.776 L 374.2 102.776 Q 374.315 101.809 374.605 100.826 L 374.605 100.826 L 374.605 100.826 Q 374.895 99.842 375.263 98.852 L 375.263 98.852 L 375.263 98.852 Q 375.63 97.862 375.925 96.9 L 375.925 96.9 L 375.925 96.9 Q 376.22 95.938 376.343 95.003 L 376.343 95.003 L 376.343 95.003 Q 376.465 94.069 376.262 93.176 L 376.262 93.176 L 376.262 93.176 Q 376.16 92.729 375.929 92.502 L 375.929 92.502 L 375.929 92.502 Q 375.698 92.275 375.23 92.382 L 375.23 92.382 L 375.23 92.382 Q 374.486 92.552 373.795 93.347 L 373.795 93.347 L 373.795 93.347 Q 373.103 94.142 372.443 95.367 L 372.443 95.367 L 372.443 95.367 Q 371.782 96.592 371.154 98.156 L 371.154 98.156 L 371.154 98.156 Q 370.527 99.72 369.943 101.43 L 369.943 101.43 L 369.943 101.43 Q 369.36 103.141 368.808 104.889 L 368.808 104.889 L 368.808 104.889 Q 368.256 106.637 367.751 108.251 L 367.751 108.251 L 365.751 107.723 L 365.751 107.723 Q 366.35 105.148 366.921 103.093 L 366.921 103.093 L 366.921 103.093 Q 367.493 101.038 367.901 99.39 L 367.901 99.39 L 367.901 99.39 Q 368.308 97.742 368.454 96.422 L 368.454 96.422 L 368.454 96.422 Q 368.601 95.102 368.353 94.017 L 368.353 94.017 L 368.353 94.017 Q 368.305 93.805 368.211 93.591 L 368.211 93.591 L 368.211 93.591 Q 368.118 93.377 367.952 93.236 L 367.952 93.236 L 367.952 93.236 Q 367.785 93.095 367.556 93.024 L 367.556 93.024 L 367.556 93.024 Q 367.328 92.954 367.009 93.026 L 367.009 93.026 L 367.009 93.026 Q 366.285 93.191 365.694 94.031 L 365.694 94.031 L 365.694 94.031 Q 365.102 94.871 364.537 96.219 L 364.537 96.219 L 364.537 96.219 Q 363.972 97.568 363.377 99.325 L 363.377 99.325 L 363.377 99.325 Q 362.782 101.083 362.08 103.056 L 362.08 103.056 L 362.08 103.056 Q 361.377 105.029 360.516 107.138 L 360.516 107.138 L 360.516 107.138 Q 359.655 109.248 358.533 111.294 L 358.533 111.294 L 356.842 110.65 L 356.842 110.65 Q 357.29 109.474 357.785 108.164 L 357.785 108.164 L 357.785 108.164 Q 358.281 106.854 358.748 105.517 L 358.748 105.517 L 358.748 105.517 Q 359.215 104.179 359.62 102.867 L 359.62 102.867 L 359.62 102.867 Q 360.026 101.555 360.299 100.397 L 360.299 100.397 L 360.299 100.397 Q 360.571 99.238 360.67 98.298 L 360.67 98.298 L 360.67 98.298 Q 360.769 97.358 360.629 96.741 L 360.629 96.741 L 360.629 96.741 Q 360.464 96.018 360.029 95.782 L 360.029 95.782 L 360.029 95.782 Q 359.595 95.545 359.021 95.676 L 359.021 95.676 L 359.021 95.676 Q 358.34 95.831 357.803 96.468 L 357.803 96.468 L 357.803 96.468 Q 357.266 97.106 356.757 98.161 L 356.757 98.161 L 356.757 98.161 Q 356.248 99.217 355.713 100.648 L 355.713 100.648 L 355.713 100.648 Q 355.178 102.079 354.475 103.806 L 354.475 103.806 L 353.574 103.385 L 353.574 103.385 Q 354.294 101.341 354.887 99.774 L 354.887 99.774 L 354.887 99.774 Q 355.481 98.206 356.08 97.107 L 356.08 97.107 L 356.08 97.107 Q 356.68 96.008 357.371 95.359 L 357.371 95.359 L 357.371 95.359 Q 358.062 94.709 358.997 94.495 L 358.997 94.495 L 358.997 94.495 Q 359.274 94.432 359.734 94.439 L 359.734 94.439 L 359.734 94.439 Q 360.195 94.446 360.683 94.626 L 360.683 94.626 L 360.683 94.626 Q 361.171 94.805 361.613 95.219 L 361.613 95.219 L 361.613 95.219 Q 362.054 95.633 362.292 96.384 L 362.292 96.384 L 362.292 96.384 Q 363.134 94.581 364.223 93.371 L 364.223 93.371 L 364.223 93.371 Q 365.312 92.16 366.46 91.898 L 366.46 91.898 L 366.46 91.898 Q 367.29 91.709 367.939 91.908 L 367.939 91.908 L 367.939 91.908 Q 368.589 92.106 369.061 92.558 L 369.061 92.558 L 369.061 92.558 Q 369.533 93.01 369.846 93.643 L 369.846 93.643 L 369.846 93.643 Q 370.158 94.277 370.313 94.958 L 370.313 94.958 L 370.313 94.958 Q 370.352 95.128 370.385 95.322 L 370.385 95.322 L 370.385 95.322 Q 370.418 95.516 370.44 95.712 Z  M 396.862 86.665 L 397.61 86.808 L 397.61 86.808 Q 397.46 87.424 397.164 88.431 L 397.164 88.431 L 397.164 88.431 Q 396.868 89.438 396.538 90.644 L 396.538 90.644 L 396.538 90.644 Q 396.209 91.849 395.891 93.152 L 395.891 93.152 L 395.891 93.152 Q 395.573 94.455 395.349 95.681 L 395.349 95.681 L 395.349 95.681 Q 395.125 96.907 395.042 97.966 L 395.042 97.966 L 395.042 97.966 Q 394.959 99.025 395.115 99.706 L 395.115 99.706 L 395.115 99.706 Q 395.27 100.387 395.582 100.528 L 395.582 100.528 L 395.582 100.528 Q 395.894 100.669 396.319 100.572 L 396.319 100.572 L 396.319 100.572 Q 396.936 100.432 397.502 99.922 L 397.502 99.922 L 397.502 99.922 Q 398.068 99.413 398.565 98.695 L 398.565 98.695 L 398.565 98.695 Q 399.061 97.978 399.492 97.119 L 399.492 97.119 L 399.492 97.119 Q 399.923 96.26 400.276 95.407 L 400.276 95.407 L 400.276 95.407 Q 400.63 94.555 400.903 93.788 L 400.903 93.788 L 400.903 93.788 Q 401.175 93.021 401.366 92.485 L 401.366 92.485 L 402.268 92.906 L 402.268 92.906 Q 402.061 93.669 401.752 94.567 L 401.752 94.567 L 401.752 94.567 Q 401.442 95.466 401.039 96.397 L 401.039 96.397 L 401.039 96.397 Q 400.636 97.328 400.125 98.228 L 400.125 98.228 L 400.125 98.228 Q 399.614 99.127 398.99 99.874 L 398.99 99.874 L 398.99 99.874 Q 398.366 100.62 397.614 101.15 L 397.614 101.15 L 397.614 101.15 Q 396.862 101.679 395.99 101.878 L 395.99 101.878 L 395.99 101.878 Q 394.714 102.169 393.944 101.539 L 393.944 101.539 L 393.944 101.539 Q 393.174 100.909 392.897 99.697 L 392.897 99.697 L 392.897 99.697 Q 392.878 99.612 392.823 99.322 L 392.823 99.322 L 392.823 99.322 Q 392.768 99.033 392.772 98.853 L 392.772 98.853 L 392.772 98.853 Q 392.014 100.436 391.245 101.528 L 391.245 101.528 L 391.245 101.528 Q 390.476 102.621 389.689 103.338 L 389.689 103.338 L 389.689 103.338 Q 388.901 104.054 388.107 104.448 L 388.107 104.448 L 388.107 104.448 Q 387.313 104.842 386.547 105.016 L 386.547 105.016 L 386.547 105.016 Q 385.739 105.201 384.966 105.097 L 384.966 105.097 L 384.966 105.097 Q 384.193 104.994 383.534 104.607 L 383.534 104.607 L 383.534 104.607 Q 382.875 104.22 382.397 103.546 L 382.397 103.546 L 382.397 103.546 Q 381.919 102.872 381.696 101.894 L 381.696 101.894 L 381.696 101.894 Q 381.419 100.681 381.605 98.994 L 381.605 98.994 L 381.605 98.994 Q 381.791 97.307 382.761 95.184 L 382.761 95.184 L 382.761 95.184 Q 383.577 93.365 384.6 92.013 L 384.6 92.013 L 384.6 92.013 Q 385.623 90.661 386.698 89.733 L 386.698 89.733 L 386.698 89.733 Q 387.773 88.805 388.816 88.276 L 388.816 88.276 L 388.816 88.276 Q 389.859 87.748 390.731 87.549 L 390.731 87.549 L 390.731 87.549 Q 392.688 87.103 393.835 87.523 L 393.835 87.523 L 393.835 87.523 Q 394.983 87.944 395.501 89.235 L 395.501 89.235 L 395.501 89.235 Q 395.805 88.607 396.152 87.968 L 396.152 87.968 L 396.152 87.968 Q 396.499 87.33 396.862 86.665 L 396.862 86.665 L 396.862 86.665 Z  M 392.924 96.379 L 392.924 96.379 L 392.924 96.379 Q 393.098 95.87 393.345 95.086 L 393.345 95.086 L 393.345 95.086 Q 393.591 94.303 393.871 93.467 L 393.871 93.467 L 393.871 93.467 Q 394.15 92.631 394.42 91.854 L 394.42 91.854 L 394.42 91.854 Q 394.69 91.076 394.903 90.536 L 394.903 90.536 L 394.903 90.536 Q 394.859 90.344 394.709 89.931 L 394.709 89.931 L 394.709 89.931 Q 394.559 89.518 394.225 89.135 L 394.225 89.135 L 394.225 89.135 Q 393.892 88.752 393.309 88.55 L 393.309 88.55 L 393.309 88.55 Q 392.725 88.347 391.811 88.556 L 391.811 88.556 L 391.811 88.556 Q 391.151 88.706 390.379 89.095 L 390.379 89.095 L 390.379 89.095 Q 389.606 89.484 388.79 90.173 L 388.79 90.173 L 388.79 90.173 Q 387.974 90.863 387.175 91.873 L 387.175 91.873 L 387.175 91.873 Q 386.376 92.883 385.664 94.276 L 385.664 94.276 L 385.664 94.276 Q 384.599 96.376 384.207 98.334 L 384.207 98.334 L 384.207 98.334 Q 383.814 100.292 384.139 101.717 L 384.139 101.717 L 384.139 101.717 Q 384.416 102.929 385.119 103.463 L 385.119 103.463 L 385.119 103.463 Q 385.822 103.996 386.843 103.763 L 386.843 103.763 L 386.843 103.763 Q 388.013 103.496 388.915 102.742 L 388.915 102.742 L 388.915 102.742 Q 389.817 101.988 390.521 100.955 L 390.521 100.955 L 390.521 100.955 Q 391.226 99.922 391.803 98.727 L 391.803 98.727 L 391.803 98.727 Q 392.381 97.532 392.924 96.379 Z  M 418.418 85.329 L 418.418 85.329 L 418.418 85.329 Q 418.627 86.244 418.523 87.263 L 418.523 87.263 L 418.523 87.263 Q 418.42 88.282 418.147 89.34 L 418.147 89.34 L 418.147 89.34 Q 417.874 90.398 417.529 91.439 L 417.529 91.439 L 417.529 91.439 Q 417.185 92.48 416.89 93.442 L 416.89 93.442 L 416.89 93.442 Q 416.594 94.404 416.453 95.253 L 416.453 95.253 L 416.453 95.253 Q 416.311 96.103 416.456 96.741 L 416.456 96.741 L 416.456 96.741 Q 416.568 97.23 416.819 97.351 L 416.819 97.351 L 416.819 97.351 Q 417.071 97.473 417.326 97.415 L 417.326 97.415 L 417.326 97.415 Q 418.134 97.231 418.952 96.205 L 418.952 96.205 L 418.952 96.205 Q 419.77 95.179 420.525 93.732 L 420.525 93.732 L 420.525 93.732 Q 421.28 92.284 421.976 90.626 L 421.976 90.626 L 421.976 90.626 Q 422.672 88.968 423.21 87.503 L 423.21 87.503 L 424.112 87.924 L 424.112 87.924 Q 424 88.218 423.725 89.075 L 423.725 89.075 L 423.725 89.075 Q 423.451 89.932 423.012 91.05 L 423.012 91.05 L 423.012 91.05 Q 422.573 92.168 421.995 93.408 L 421.995 93.408 L 421.995 93.408 Q 421.416 94.647 420.681 95.743 L 420.681 95.743 L 420.681 95.743 Q 419.947 96.839 419.089 97.639 L 419.089 97.639 L 419.089 97.639 Q 418.231 98.439 417.231 98.667 L 417.231 98.667 L 417.231 98.667 Q 416.657 98.798 416.145 98.713 L 416.145 98.713 L 416.145 98.713 Q 415.634 98.629 415.226 98.364 L 415.226 98.364 L 415.226 98.364 Q 414.819 98.098 414.523 97.685 L 414.523 97.685 L 414.523 97.685 Q 414.228 97.271 414.111 96.761 L 414.111 96.761 L 414.111 96.761 Q 413.922 95.931 414.073 94.879 L 414.073 94.879 L 414.073 94.879 Q 414.225 93.826 414.545 92.679 L 414.545 92.679 L 414.545 92.679 Q 414.865 91.532 415.289 90.35 L 415.289 90.35 L 415.289 90.35 Q 415.713 89.168 416.053 88.106 L 416.053 88.106 L 416.053 88.106 Q 416.393 87.044 416.583 86.161 L 416.583 86.161 L 416.583 86.161 Q 416.773 85.279 416.642 84.705 L 416.642 84.705 L 416.642 84.705 Q 416.492 84.045 416.039 83.679 L 416.039 83.679 L 416.039 83.679 Q 415.586 83.312 414.948 83.458 L 414.948 83.458 L 414.948 83.458 Q 414.268 83.613 413.503 84.38 L 413.503 84.38 L 413.503 84.38 Q 412.738 85.148 411.879 86.485 L 411.879 86.485 L 411.879 86.485 Q 411.021 87.822 410.074 89.705 L 410.074 89.705 L 410.074 89.705 Q 409.127 91.587 408.057 93.957 L 408.057 93.957 L 408.057 93.957 Q 407.452 95.326 406.869 96.6 L 406.869 96.6 L 406.869 96.6 Q 406.615 97.15 406.365 97.722 L 406.365 97.722 L 406.365 97.722 Q 406.115 98.294 405.862 98.855 L 405.862 98.855 L 405.862 98.855 Q 405.61 99.416 405.39 99.924 L 405.39 99.924 L 405.39 99.924 Q 405.171 100.433 404.988 100.811 L 404.988 100.811 L 402.942 100.472 L 404.649 96.48 L 404.649 96.48 Q 405.016 95.635 405.38 94.68 L 405.38 94.68 L 405.38 94.68 Q 405.744 93.724 406.085 92.718 L 406.085 92.718 L 406.085 92.718 Q 406.426 91.711 406.711 90.706 L 406.711 90.706 L 406.711 90.706 Q 406.997 89.702 407.228 88.754 L 407.228 88.754 L 407.228 88.754 Q 407.554 87.337 407.596 86.443 L 407.596 86.443 L 407.596 86.443 Q 407.639 85.55 407.522 85.039 L 407.522 85.039 L 407.522 85.039 Q 407.391 84.465 407.137 84.333 L 407.137 84.333 L 407.137 84.333 Q 406.883 84.201 406.5 84.288 L 406.5 84.288 L 406.5 84.288 Q 406.096 84.38 405.67 84.914 L 405.67 84.914 L 405.67 84.914 Q 405.243 85.447 404.838 86.222 L 404.838 86.222 L 404.838 86.222 Q 404.433 86.997 404.056 87.944 L 404.056 87.944 L 404.056 87.944 Q 403.679 88.892 403.353 89.816 L 403.353 89.816 L 403.353 89.816 Q 403.027 90.741 402.745 91.566 L 402.745 91.566 L 402.745 91.566 Q 402.464 92.391 402.268 92.906 L 402.268 92.906 L 401.366 92.485 L 401.366 92.485 Q 402.063 90.536 402.623 88.92 L 402.623 88.92 L 402.623 88.92 Q 403.183 87.304 403.769 86.097 L 403.769 86.097 L 403.769 86.097 Q 404.355 84.889 405.003 84.148 L 405.003 84.148 L 405.003 84.148 Q 405.651 83.408 406.523 83.209 L 406.523 83.209 L 406.523 83.209 Q 406.991 83.102 407.47 83.194 L 407.47 83.194 L 407.47 83.194 Q 407.95 83.286 408.365 83.583 L 408.365 83.583 L 408.365 83.583 Q 408.779 83.88 409.092 84.368 L 409.092 84.368 L 409.092 84.368 Q 409.405 84.856 409.565 85.558 L 409.565 85.558 L 409.565 85.558 Q 409.691 86.111 409.699 86.736 L 409.699 86.736 L 409.699 86.736 Q 410.426 85.608 411.099 84.828 L 411.099 84.828 L 411.099 84.828 Q 411.771 84.048 412.372 83.542 L 412.372 83.542 L 412.372 83.542 Q 412.972 83.036 413.513 82.756 L 413.513 82.756 L 413.513 82.756 Q 414.053 82.476 414.521 82.369 L 414.521 82.369 L 414.521 82.369 Q 414.925 82.277 415.491 82.305 L 415.491 82.305 L 415.491 82.305 Q 416.056 82.332 416.617 82.63 L 416.617 82.63 L 416.617 82.63 Q 417.177 82.927 417.669 83.564 L 417.669 83.564 L 417.669 83.564 Q 418.161 84.202 418.418 85.329 Z  M 163.407 122.344 L 164.216 123.144 L 164.216 123.144 Q 163.037 124.353 161.676 125.301 L 161.676 125.301 L 161.676 125.301 Q 160.315 126.249 158.802 126.975 L 158.802 126.975 L 158.802 126.975 Q 157.289 127.7 155.643 128.232 L 155.643 128.232 L 155.643 128.232 Q 153.997 128.764 152.274 129.157 L 152.274 129.157 L 152.274 129.157 Q 150.104 129.652 147.65 129.977 L 147.65 129.977 L 147.65 129.977 Q 145.196 130.302 142.766 130.587 L 142.766 130.587 L 142.766 130.587 Q 140.336 130.873 138.073 131.154 L 138.073 131.154 L 138.073 131.154 Q 135.81 131.435 134.024 131.843 L 134.024 131.843 L 134.024 131.843 Q 131.407 132.439 129.412 133.599 L 129.412 133.599 L 129.412 133.599 Q 127.417 134.759 126.164 136.331 L 126.164 136.331 L 126.164 136.331 Q 124.912 137.904 124.462 139.808 L 124.462 139.808 L 124.462 139.808 Q 124.012 141.711 124.493 143.817 L 124.493 143.817 L 124.493 143.817 Q 124.827 145.285 125.596 146.351 L 125.596 146.351 L 125.596 146.351 Q 126.365 147.418 127.475 148.015 L 127.475 148.015 L 127.475 148.015 Q 128.584 148.612 129.981 148.752 L 129.981 148.752 L 129.981 148.752 Q 131.378 148.892 132.952 148.533 L 132.952 148.533 L 132.952 148.533 Q 134.313 148.223 135.685 147.563 L 135.685 147.563 L 135.685 147.563 Q 137.056 146.904 138.309 145.924 L 138.309 145.924 L 138.955 146.694 L 138.955 146.694 Q 137.719 147.849 135.969 148.763 L 135.969 148.763 L 135.969 148.763 Q 134.22 149.676 132.327 150.108 L 132.327 150.108 L 132.327 150.108 Q 130.689 150.481 129.072 150.358 L 129.072 150.358 L 129.072 150.358 Q 127.455 150.234 126.059 149.557 L 126.059 149.557 L 126.059 149.557 Q 124.663 148.88 123.633 147.604 L 123.633 147.604 L 123.633 147.604 Q 122.604 146.329 122.163 144.393 L 122.163 144.393 L 122.163 144.393 Q 121.726 142.479 121.953 140.827 L 121.953 140.827 L 121.953 140.827 Q 122.181 139.175 122.911 137.767 L 122.911 137.767 L 122.911 137.767 Q 123.642 136.359 124.793 135.223 L 124.793 135.223 L 124.793 135.223 Q 125.943 134.088 127.362 133.194 L 127.362 133.194 L 127.362 133.194 Q 128.78 132.3 130.383 131.677 L 130.383 131.677 L 130.383 131.677 Q 131.986 131.054 133.624 130.681 L 133.624 130.681 L 133.624 130.681 Q 135.581 130.234 137.878 129.957 L 137.878 129.957 L 137.878 129.957 Q 140.176 129.679 142.576 129.411 L 142.576 129.411 L 142.576 129.411 Q 144.976 129.143 147.39 128.839 L 147.39 128.839 L 147.39 128.839 Q 149.805 128.534 152.017 128.03 L 152.017 128.03 L 152.017 128.03 Q 153.676 127.651 155.261 127.145 L 155.261 127.145 L 155.261 127.145 Q 156.846 126.638 158.289 125.951 L 158.289 125.951 L 158.289 125.951 Q 159.732 125.263 161.018 124.377 L 161.018 124.377 L 161.018 124.377 Q 162.304 123.491 163.407 122.344 L 163.407 122.344 L 163.407 122.344 Z  M 149.613 131.129 L 150.425 131.548 L 150.425 131.548 Q 149.112 134.13 148.26 136.819 L 148.26 136.819 L 148.26 136.819 Q 147.407 139.508 146.77 142.16 L 146.77 142.16 L 146.77 142.16 Q 146.133 144.811 145.601 147.383 L 145.601 147.383 L 145.601 147.383 Q 145.068 149.954 144.398 152.311 L 144.398 152.311 L 144.398 152.311 Q 143.727 154.668 142.824 156.743 L 142.824 156.743 L 142.824 156.743 Q 141.921 158.817 140.547 160.495 L 140.547 160.495 L 140.547 160.495 Q 139.173 162.173 137.203 163.395 L 137.203 163.395 L 137.203 163.395 Q 135.233 164.616 132.468 165.247 L 132.468 165.247 L 132.468 165.247 Q 130.022 165.804 127.996 165.606 L 127.996 165.606 L 127.996 165.606 Q 125.971 165.408 124.445 164.604 L 124.445 164.604 L 124.445 164.604 Q 122.919 163.8 121.922 162.472 L 121.922 162.472 L 121.922 162.472 Q 120.926 161.144 120.533 159.421 L 120.533 159.421 L 120.533 159.421 Q 120.383 158.762 120.332 158.147 L 120.332 158.147 L 120.332 158.147 Q 120.281 157.532 120.34 157.004 L 120.34 157.004 L 121.476 157.08 L 121.476 157.08 Q 121.445 157.535 121.479 158.075 L 121.479 158.075 L 121.479 158.075 Q 121.513 158.616 121.639 159.169 L 121.639 159.169 L 121.639 159.169 Q 122.042 160.934 123.087 162.083 L 123.087 162.083 L 123.087 162.083 Q 124.132 163.232 125.543 163.828 L 125.543 163.828 L 125.543 163.828 Q 126.955 164.423 128.607 164.505 L 128.607 164.505 L 128.607 164.505 Q 130.259 164.587 131.875 164.218 L 131.875 164.218 L 131.875 164.218 Q 134.215 163.685 135.849 162.462 L 135.849 162.462 L 135.849 162.462 Q 137.483 161.239 138.654 159.506 L 138.654 159.506 L 138.654 159.506 Q 139.826 157.773 140.622 155.623 L 140.622 155.623 L 140.622 155.623 Q 141.418 153.472 142.076 151.062 L 142.076 151.062 L 142.076 151.062 Q 142.735 148.652 143.365 146.069 L 143.365 146.069 L 143.365 146.069 Q 143.996 143.486 144.827 140.902 L 144.827 140.902 L 144.827 140.902 Q 145.659 138.318 146.793 135.833 L 146.793 135.833 L 146.793 135.833 Q 147.927 133.348 149.613 131.129 L 149.613 131.129 L 149.613 131.129 Z  M 164.063 146.607 L 164.986 147.023 L 164.986 147.023 Q 164.773 147.563 164.519 148.461 L 164.519 148.461 L 164.519 148.461 Q 164.265 149.358 163.902 150.414 L 163.902 150.414 L 163.902 150.414 Q 163.538 151.47 163.065 152.585 L 163.065 152.585 L 163.065 152.585 Q 162.593 153.7 161.948 154.652 L 161.948 154.652 L 161.948 154.652 Q 161.304 155.604 160.458 156.312 L 160.458 156.312 L 160.458 156.312 Q 159.613 157.019 158.528 157.267 L 158.528 157.267 L 158.528 157.267 Q 157.933 157.403 157.36 157.343 L 157.36 157.343 L 157.36 157.343 Q 156.787 157.284 156.295 156.993 L 156.295 156.993 L 156.295 156.993 Q 155.804 156.702 155.441 156.192 L 155.441 156.192 L 155.441 156.192 Q 155.079 155.682 154.904 154.916 L 154.904 154.916 L 154.904 154.916 Q 154.666 153.874 154.822 152.641 L 154.822 152.641 L 154.822 152.641 Q 154.977 151.409 155.287 150.219 L 155.287 150.219 L 155.287 150.219 Q 155.598 149.03 155.95 148.021 L 155.95 148.021 L 155.95 148.021 Q 156.301 147.012 156.435 146.422 L 156.435 146.422 L 156.435 146.422 Q 156.569 145.832 156.482 145.449 L 156.482 145.449 L 156.482 145.449 Q 156.419 145.173 156.189 145.001 L 156.189 145.001 L 156.189 145.001 Q 155.96 144.83 155.648 144.688 L 155.648 144.688 L 155.648 144.688 Q 155.336 144.547 154.998 144.389 L 154.998 144.389 L 154.998 144.389 Q 154.66 144.231 154.396 143.956 L 154.396 143.956 L 154.396 143.956 Q 154.058 144.928 153.704 145.926 L 153.704 145.926 L 153.704 145.926 Q 153.385 146.782 153.021 147.838 L 153.021 147.838 L 153.021 147.838 Q 152.658 148.894 152.33 149.909 L 152.33 149.909 L 151.429 149.488 L 154.355 141.325 L 155.045 141.503 L 155.045 141.503 Q 155.031 141.64 154.999 141.939 L 154.999 141.939 L 154.999 141.939 Q 154.966 142.237 155.039 142.556 L 155.039 142.556 L 155.039 142.556 Q 155.092 142.79 155.218 142.996 L 155.218 142.996 L 155.218 142.996 Q 155.343 143.203 155.621 143.341 L 155.621 143.341 L 155.621 143.341 Q 156.646 143.913 157.23 144.216 L 157.23 144.216 L 157.23 144.216 Q 157.814 144.519 158.093 144.713 L 158.093 144.713 L 158.093 144.713 Q 158.372 144.906 158.461 145.054 L 158.461 145.054 L 158.461 145.054 Q 158.551 145.201 158.609 145.456 L 158.609 145.456 L 158.609 145.456 Q 158.667 145.712 158.665 146.093 L 158.665 146.093 L 158.665 146.093 Q 158.662 146.473 158.577 147.03 L 158.577 147.03 L 158.577 147.03 Q 158.491 147.587 158.298 148.358 L 158.298 148.358 L 158.298 148.358 Q 158.104 149.129 157.781 150.165 L 157.781 150.165 L 157.781 150.165 Q 157.588 150.791 157.408 151.425 L 157.408 151.425 L 157.408 151.425 Q 157.229 152.059 157.115 152.689 L 157.115 152.689 L 157.115 152.689 Q 157.001 153.319 156.983 153.927 L 156.983 153.927 L 156.983 153.927 Q 156.965 154.535 157.087 155.067 L 157.087 155.067 L 157.087 155.067 Q 157.179 155.471 157.352 155.689 L 157.352 155.689 L 157.352 155.689 Q 157.524 155.907 157.745 155.991 L 157.745 155.991 L 157.745 155.991 Q 157.965 156.075 158.199 156.067 L 158.199 156.067 L 158.199 156.067 Q 158.432 156.058 158.644 156.01 L 158.644 156.01 L 158.644 156.01 Q 159.346 155.85 159.943 155.277 L 159.943 155.277 L 159.943 155.277 Q 160.539 154.705 161.059 153.893 L 161.059 153.893 L 161.059 153.893 Q 161.579 153.08 162.015 152.097 L 162.015 152.097 L 162.015 152.097 Q 162.45 151.114 162.826 150.111 L 162.826 150.111 L 162.826 150.111 Q 163.201 149.108 163.508 148.199 L 163.508 148.199 L 163.508 148.199 Q 163.816 147.29 164.063 146.607 L 164.063 146.607 L 164.063 146.607 Z  M 178.807 136.397 L 179.555 136.54 L 179.555 136.54 Q 179.405 137.156 179.109 138.163 L 179.109 138.163 L 179.109 138.163 Q 178.813 139.17 178.484 140.375 L 178.484 140.375 L 178.484 140.375 Q 178.154 141.58 177.836 142.884 L 177.836 142.884 L 177.836 142.884 Q 177.518 144.187 177.294 145.413 L 177.294 145.413 L 177.294 145.413 Q 177.07 146.638 176.987 147.698 L 176.987 147.698 L 176.987 147.698 Q 176.905 148.757 177.06 149.438 L 177.06 149.438 L 177.06 149.438 Q 177.215 150.118 177.527 150.26 L 177.527 150.26 L 177.527 150.26 Q 177.839 150.401 178.264 150.304 L 178.264 150.304 L 178.264 150.304 Q 178.881 150.164 179.447 149.654 L 179.447 149.654 L 179.447 149.654 Q 180.014 149.144 180.51 148.427 L 180.51 148.427 L 180.51 148.427 Q 181.007 147.71 181.437 146.851 L 181.437 146.851 L 181.437 146.851 Q 181.868 145.992 182.222 145.139 L 182.222 145.139 L 182.222 145.139 Q 182.575 144.286 182.848 143.519 L 182.848 143.519 L 182.848 143.519 Q 183.121 142.752 183.312 142.217 L 183.312 142.217 L 184.213 142.638 L 184.213 142.638 Q 184.007 143.401 183.697 144.299 L 183.697 144.299 L 183.697 144.299 Q 183.387 145.198 182.984 146.129 L 182.984 146.129 L 182.984 146.129 Q 182.581 147.06 182.071 147.959 L 182.071 147.959 L 182.071 147.959 Q 181.56 148.859 180.936 149.606 L 180.936 149.606 L 180.936 149.606 Q 180.311 150.352 179.56 150.882 L 179.56 150.882 L 179.56 150.882 Q 178.808 151.411 177.936 151.61 L 177.936 151.61 L 177.936 151.61 Q 176.659 151.901 175.889 151.271 L 175.889 151.271 L 175.889 151.271 Q 175.119 150.641 174.843 149.429 L 174.843 149.429 L 174.843 149.429 Q 174.823 149.344 174.768 149.054 L 174.768 149.054 L 174.768 149.054 Q 174.714 148.765 174.717 148.585 L 174.717 148.585 L 174.717 148.585 Q 173.959 150.167 173.191 151.26 L 173.191 151.26 L 173.191 151.26 Q 172.422 152.353 171.634 153.069 L 171.634 153.069 L 171.634 153.069 Q 170.847 153.786 170.053 154.18 L 170.053 154.18 L 170.053 154.18 Q 169.258 154.573 168.493 154.748 L 168.493 154.748 L 168.493 154.748 Q 167.685 154.932 166.911 154.829 L 166.911 154.829 L 166.911 154.829 Q 166.138 154.726 165.479 154.339 L 165.479 154.339 L 165.479 154.339 Q 164.821 153.952 164.342 153.278 L 164.342 153.278 L 164.342 153.278 Q 163.864 152.604 163.641 151.626 L 163.641 151.626 L 163.641 151.626 Q 163.365 150.413 163.55 148.726 L 163.55 148.726 L 163.55 148.726 Q 163.736 147.039 164.706 144.916 L 164.706 144.916 L 164.706 144.916 Q 165.522 143.096 166.545 141.744 L 166.545 141.744 L 166.545 141.744 Q 167.568 140.392 168.643 139.465 L 168.643 139.465 L 168.643 139.465 Q 169.718 138.537 170.761 138.008 L 170.761 138.008 L 170.761 138.008 Q 171.804 137.479 172.676 137.281 L 172.676 137.281 L 172.676 137.281 Q 174.633 136.834 175.781 137.255 L 175.781 137.255 L 175.781 137.255 Q 176.928 137.676 177.446 138.967 L 177.446 138.967 L 177.446 138.967 Q 177.751 138.338 178.097 137.7 L 178.097 137.7 L 178.097 137.7 Q 178.444 137.062 178.807 136.397 L 178.807 136.397 L 178.807 136.397 Z  M 174.869 146.111 L 174.869 146.111 L 174.869 146.111 Q 175.044 145.601 175.29 144.818 L 175.29 144.818 L 175.29 144.818 Q 175.537 144.035 175.816 143.199 L 175.816 143.199 L 175.816 143.199 Q 176.095 142.363 176.365 141.586 L 176.365 141.586 L 176.365 141.586 Q 176.636 140.808 176.848 140.267 L 176.848 140.267 L 176.848 140.267 Q 176.804 140.076 176.654 139.663 L 176.654 139.663 L 176.654 139.663 Q 176.504 139.249 176.17 138.867 L 176.17 138.867 L 176.17 138.867 Q 175.837 138.484 175.254 138.281 L 175.254 138.281 L 175.254 138.281 Q 174.671 138.079 173.756 138.287 L 173.756 138.287 L 173.756 138.287 Q 173.097 138.438 172.324 138.827 L 172.324 138.827 L 172.324 138.827 Q 171.551 139.215 170.735 139.905 L 170.735 139.905 L 170.735 139.905 Q 169.919 140.595 169.12 141.605 L 169.12 141.605 L 169.12 141.605 Q 168.321 142.615 167.61 144.008 L 167.61 144.008 L 167.61 144.008 Q 166.545 146.108 166.152 148.066 L 166.152 148.066 L 166.152 148.066 Q 165.759 150.024 166.084 151.449 L 166.084 151.449 L 166.084 151.449 Q 166.361 152.661 167.064 153.194 L 167.064 153.194 L 167.064 153.194 Q 167.768 153.728 168.789 153.495 L 168.789 153.495 L 168.789 153.495 Q 169.958 153.228 170.861 152.474 L 170.861 152.474 L 170.861 152.474 Q 171.763 151.72 172.467 150.687 L 172.467 150.687 L 172.467 150.687 Q 173.171 149.653 173.749 148.459 L 173.749 148.459 L 173.749 148.459 Q 174.327 147.264 174.869 146.111 Z  M 194.515 139.438 L 194.515 139.438 L 194.515 139.438 Q 194.005 138.771 193.639 138.004 L 193.639 138.004 L 193.639 138.004 Q 193.274 137.237 193.075 136.365 L 193.075 136.365 L 193.075 136.365 Q 192.818 135.238 192.843 134.415 L 192.843 134.415 L 192.843 134.415 Q 192.868 133.593 193.057 133.046 L 193.057 133.046 L 193.057 133.046 Q 193.246 132.5 193.548 132.207 L 193.548 132.207 L 193.548 132.207 Q 193.85 131.914 194.169 131.842 L 194.169 131.842 L 194.169 131.842 Q 194.446 131.779 194.717 131.84 L 194.717 131.84 L 194.717 131.84 Q 194.989 131.901 195.243 132.134 L 195.243 132.134 L 195.243 132.134 Q 195.498 132.367 195.716 132.787 L 195.716 132.787 L 195.716 132.787 Q 195.935 133.207 196.086 133.866 L 196.086 133.866 L 196.086 133.866 Q 196.435 135.397 196.197 137.152 L 196.197 137.152 L 196.197 137.152 Q 195.96 138.907 195.294 140.647 L 195.294 140.647 L 195.294 140.647 Q 194.628 142.388 193.615 144.029 L 193.615 144.029 L 193.615 144.029 Q 192.602 145.669 191.431 147.01 L 191.431 147.01 L 191.431 147.01 Q 191.111 147.374 190.682 147.797 L 190.682 147.797 L 190.682 147.797 Q 190.252 148.219 189.749 148.614 L 189.749 148.614 L 189.749 148.614 Q 189.246 149.008 188.681 149.327 L 188.681 149.327 L 188.681 149.327 Q 188.116 149.646 187.542 149.777 L 187.542 149.777 L 187.542 149.777 Q 186.117 150.102 184.968 149.234 L 184.968 149.234 L 184.968 149.234 Q 183.819 148.366 183.378 146.431 L 183.378 146.431 L 183.378 146.431 Q 183.174 145.537 183.196 144.458 L 183.196 144.458 L 183.196 144.458 Q 183.219 143.379 183.42 142.203 L 183.42 142.203 L 183.42 142.203 Q 183.622 141.027 183.97 139.806 L 183.97 139.806 L 183.97 139.806 Q 184.318 138.586 184.763 137.444 L 184.763 137.444 L 184.763 137.444 Q 185.207 136.302 185.731 135.265 L 185.731 135.265 L 185.731 135.265 Q 186.256 134.228 186.807 133.409 L 186.807 133.409 L 187.884 133.812 L 187.884 133.812 Q 187.077 135.965 186.584 137.924 L 186.584 137.924 L 186.584 137.924 Q 186.091 139.882 185.86 141.568 L 185.86 141.568 L 185.86 141.568 Q 185.629 143.254 185.636 144.607 L 185.636 144.607 L 185.636 144.607 Q 185.642 145.959 185.855 146.895 L 185.855 146.895 L 185.855 146.895 Q 186.103 147.98 186.494 148.371 L 186.494 148.371 L 186.494 148.371 Q 186.886 148.763 187.417 148.642 L 187.417 148.642 L 187.417 148.642 Q 187.928 148.525 188.747 147.947 L 188.747 147.947 L 188.747 147.947 Q 189.566 147.369 190.568 146.268 L 190.568 146.268 L 190.568 146.268 Q 191.835 144.86 192.875 143.09 L 192.875 143.09 L 192.875 143.09 Q 193.915 141.32 194.515 139.438 Z  M 194.953 138.219 L 194.953 138.219 L 194.953 138.219 Q 195.16 137.165 195.169 136.078 L 195.169 136.078 L 195.169 136.078 Q 195.178 134.99 194.97 134.076 L 194.97 134.076 L 194.97 134.076 Q 194.824 133.438 194.655 133.185 L 194.655 133.185 L 194.655 133.185 Q 194.486 132.933 194.412 132.905 L 194.412 132.905 L 194.412 132.905 Q 194.391 132.91 194.271 133.071 L 194.271 133.071 L 194.271 133.071 Q 194.151 133.233 194.046 133.604 L 194.046 133.604 L 194.046 133.604 Q 193.94 133.975 193.935 134.591 L 193.935 134.591 L 193.935 134.591 Q 193.93 135.208 194.139 136.122 L 194.139 136.122 L 194.139 136.122 Q 194.26 136.654 194.47 137.233 L 194.47 137.233 L 194.47 137.233 Q 194.681 137.811 194.953 138.219 Z  M 200.86 141.459 L 200.86 141.459 L 200.86 141.459 Q 200.876 141.724 200.913 141.984 L 200.913 141.984 L 200.913 141.984 Q 200.95 142.244 201.008 142.499 L 201.008 142.499 L 201.008 142.499 Q 201.183 143.265 201.564 143.905 L 201.564 143.905 L 201.564 143.905 Q 201.945 144.545 202.5 144.967 L 202.5 144.967 L 202.5 144.967 Q 203.055 145.389 203.771 145.539 L 203.771 145.539 L 203.771 145.539 Q 204.488 145.688 205.317 145.499 L 205.317 145.499 L 205.317 145.499 Q 208.104 144.864 210.267 142.379 L 210.267 142.379 L 210.267 142.379 Q 212.43 139.894 214.067 135.202 L 214.067 135.202 L 214.936 135.675 L 214.936 135.675 Q 214.066 138.335 212.986 140.271 L 212.986 140.271 L 212.986 140.271 Q 211.906 142.207 210.698 143.534 L 210.698 143.534 L 210.698 143.534 Q 209.49 144.861 208.21 145.623 L 208.21 145.623 L 208.21 145.623 Q 206.929 146.385 205.674 146.671 L 205.674 146.671 L 205.674 146.671 Q 204.759 146.879 203.68 146.857 L 203.68 146.857 L 203.68 146.857 Q 202.601 146.835 201.604 146.436 L 201.604 146.436 L 201.604 146.436 Q 200.607 146.037 199.815 145.165 L 199.815 145.165 L 199.815 145.165 Q 199.023 144.294 198.684 142.805 L 198.684 142.805 L 198.684 142.805 Q 198.32 141.21 198.525 139.608 L 198.525 139.608 L 198.525 139.608 Q 198.73 138.006 199.311 136.531 L 199.311 136.531 L 199.311 136.531 Q 199.892 135.056 200.78 133.746 L 200.78 133.746 L 200.78 133.746 Q 201.667 132.436 202.656 131.428 L 202.656 131.428 L 202.656 131.428 Q 203.646 130.419 204.657 129.752 L 204.657 129.752 L 204.657 129.752 Q 205.668 129.085 206.519 128.891 L 206.519 128.891 L 206.519 128.891 Q 207.072 128.765 207.685 128.804 L 207.685 128.804 L 207.685 128.804 Q 208.298 128.843 208.838 129.1 L 208.838 129.1 L 208.838 129.1 Q 209.378 129.358 209.801 129.888 L 209.801 129.888 L 209.801 129.888 Q 210.224 130.418 210.413 131.247 L 210.413 131.247 L 210.413 131.247 Q 210.67 132.374 210.375 133.482 L 210.375 133.482 L 210.375 133.482 Q 210.079 134.59 209.399 135.629 L 209.399 135.629 L 209.399 135.629 Q 208.718 136.668 207.722 137.6 L 207.722 137.6 L 207.722 137.6 Q 206.727 138.532 205.579 139.286 L 205.579 139.286 L 205.579 139.286 Q 204.43 140.04 203.217 140.608 L 203.217 140.608 L 203.217 140.608 Q 202.004 141.176 200.86 141.459 Z  M 200.822 140.505 L 200.822 140.505 L 200.822 140.505 Q 202.213 140.031 203.366 139.299 L 203.366 139.299 L 203.366 139.299 Q 204.519 138.566 205.413 137.679 L 205.413 137.679 L 205.413 137.679 Q 206.308 136.793 206.952 135.84 L 206.952 135.84 L 206.952 135.84 Q 207.596 134.888 207.97 133.975 L 207.97 133.975 L 207.97 133.975 Q 208.343 133.062 208.476 132.271 L 208.476 132.271 L 208.476 132.271 Q 208.609 131.48 208.478 130.905 L 208.478 130.905 L 208.478 130.905 Q 208.347 130.331 207.961 130.061 L 207.961 130.061 L 207.961 130.061 Q 207.575 129.791 207.149 129.888 L 207.149 129.888 L 207.149 129.888 Q 206.214 130.102 205.197 131.038 L 205.197 131.038 L 205.197 131.038 Q 204.18 131.975 203.279 133.422 L 203.279 133.422 L 203.279 133.422 Q 202.378 134.87 201.711 136.7 L 201.711 136.7 L 201.711 136.7 Q 201.043 138.531 200.822 140.505 Z  M 224.218 108.677 L 224.218 108.677 L 224.218 108.677 Q 224.962 108.507 225.544 108.754 L 225.544 108.754 L 225.544 108.754 Q 226.127 109.002 226.345 109.959 L 226.345 109.959 L 226.345 109.959 Q 226.495 110.618 226.438 111.594 L 226.438 111.594 L 226.438 111.594 Q 226.381 112.569 226.168 113.747 L 226.168 113.747 L 226.168 113.747 Q 225.956 114.926 225.609 116.247 L 225.609 116.247 L 225.609 116.247 Q 225.261 117.568 224.815 118.9 L 224.815 118.9 L 224.815 118.9 Q 224.37 120.233 223.845 121.516 L 223.845 121.516 L 223.845 121.516 Q 223.321 122.799 222.769 123.909 L 222.769 123.909 L 222.769 123.909 Q 221.669 126.151 220.849 127.704 L 220.849 127.704 L 220.849 127.704 Q 220.028 129.256 219.426 130.344 L 219.426 130.344 L 219.426 130.344 Q 218.824 131.432 218.399 132.122 L 218.399 132.122 L 218.399 132.122 Q 217.975 132.812 217.642 133.313 L 217.642 133.313 L 217.642 133.313 Q 217.308 133.814 217.022 134.226 L 217.022 134.226 L 217.022 134.226 Q 216.736 134.638 216.445 135.13 L 216.445 135.13 L 216.445 135.13 Q 216.459 135.977 216.637 136.708 L 216.637 136.708 L 216.637 136.708 Q 216.815 137.44 216.956 138.056 L 216.956 138.056 L 216.956 138.056 Q 217.378 139.907 218.177 140.664 L 218.177 140.664 L 218.177 140.664 Q 218.976 141.422 220.061 141.174 L 220.061 141.174 L 220.061 141.174 Q 220.784 141.009 221.433 140.47 L 221.433 140.47 L 221.433 140.47 Q 222.082 139.93 222.669 139.17 L 222.669 139.17 L 222.669 139.17 Q 223.257 138.409 223.765 137.499 L 223.765 137.499 L 223.765 137.499 Q 224.274 136.589 224.703 135.674 L 224.703 135.674 L 224.703 135.674 Q 225.132 134.76 225.456 133.925 L 225.456 133.925 L 225.456 133.925 Q 225.78 133.09 226.021 132.476 L 226.021 132.476 L 226.944 132.892 L 226.944 132.892 Q 226.899 132.992 226.682 133.657 L 226.682 133.657 L 226.682 133.657 Q 226.464 134.322 226.079 135.282 L 226.079 135.282 L 226.079 135.282 Q 225.694 136.243 225.123 137.368 L 225.123 137.368 L 225.123 137.368 Q 224.552 138.494 223.821 139.511 L 223.821 139.511 L 223.821 139.511 Q 223.091 140.528 222.202 141.29 L 222.202 141.29 L 222.202 141.29 Q 221.313 142.052 220.271 142.29 L 220.271 142.29 L 220.271 142.29 Q 219.399 142.489 218.526 142.341 L 218.526 142.341 L 218.526 142.341 Q 217.653 142.193 216.885 141.619 L 216.885 141.619 L 216.885 141.619 Q 216.116 141.045 215.491 140.024 L 215.491 140.024 L 215.491 140.024 Q 214.867 139.003 214.513 137.45 L 214.513 137.45 L 214.513 137.45 Q 214.071 135.514 214.046 133.294 L 214.046 133.294 L 214.046 133.294 Q 214.021 131.073 214.32 128.756 L 214.32 128.756 L 214.32 128.756 Q 214.62 126.439 215.208 124.112 L 215.208 124.112 L 215.208 124.112 Q 215.796 121.785 216.568 119.629 L 216.568 119.629 L 216.568 119.629 Q 217.341 117.472 218.282 115.568 L 218.282 115.568 L 218.282 115.568 Q 219.224 113.664 220.223 112.206 L 220.223 112.206 L 220.223 112.206 Q 221.222 110.747 222.241 109.821 L 222.241 109.821 L 222.241 109.821 Q 223.261 108.895 224.218 108.677 Z  M 216.396 133.149 L 216.396 133.149 L 216.396 133.149 Q 217.777 130.865 219.029 128.555 L 219.029 128.555 L 219.029 128.555 Q 220.281 126.244 221.33 124.025 L 221.33 124.025 L 221.33 124.025 Q 222.379 121.805 223.207 119.748 L 223.207 119.748 L 223.207 119.748 Q 224.036 117.691 224.549 115.918 L 224.549 115.918 L 224.549 115.918 Q 225.062 114.145 225.255 112.736 L 225.255 112.736 L 225.255 112.736 Q 225.449 111.327 225.235 110.391 L 225.235 110.391 L 225.235 110.391 Q 225.196 110.221 224.961 109.973 L 224.961 109.973 L 224.961 109.973 Q 224.725 109.724 224.491 109.778 L 224.491 109.778 L 224.491 109.778 Q 223.832 109.928 222.946 111.048 L 222.946 111.048 L 222.946 111.048 Q 222.06 112.167 221.137 113.955 L 221.137 113.955 L 221.137 113.955 Q 220.213 115.743 219.318 118.051 L 219.318 118.051 L 219.318 118.051 Q 218.424 120.358 217.752 122.905 L 217.752 122.905 L 217.752 122.905 Q 217.08 125.453 216.697 128.091 L 216.697 128.091 L 216.697 128.091 Q 216.314 130.729 216.396 133.149 Z " fill="rgb(0,0,0)"/><path d=" M 99.952 165.801 C 91.911 130.54 166.058 83.513 265.429 60.849 C 364.8 38.186 452.006 48.413 460.048 83.674 C 468.089 118.934 393.942 165.962 294.571 188.625 C 195.2 211.289 107.994 201.061 99.952 165.801 Z " fill="none" vector-effect="non-scaling-stroke" stroke-width="1" stroke="rgb(0,0,0)" stroke-linejoin="miter" stroke-linecap="square" stroke-miterlimit="3"/><path d=" M 304 140 L 309 140 L 309 158 L 323 158 L 323 169 L 314 182 Q 323.406 181.75 323 182 Q 322.594 182.25 323 218 L 389 218 L 389 253 L 374 253 L 374 229 L 362 229 L 362 253 L 280 253 L 280 219 Q 291.281 219.281 291 219 Q 290.719 218.719 291 182 L 299 182 L 291 170 L 291 158 L 304 158 L 304 140 Z " fill="rgb(0,0,0)" vector-effect="non-scaling-stroke" stroke-width="1" stroke="rgb(0,0,0)" stroke-linejoin="miter" stroke-linecap="square" stroke-miterlimit="3"/><path d=" M 347 164 L 353 171 L 354 182 L 360 171 L 369 167 L 370 191 L 382 162 Q 394.148 156.789 393 155 Q 391.852 153.211 381 157 L 350 145 L 367 162 Q 357.898 167.5 358 167 Q 358.102 166.5 347 164 Z " fill="rgb(0,0,0)" vector-effect="non-scaling-stroke" stroke-width="1" stroke="rgb(0,0,0)" stroke-linejoin="miter" stroke-linecap="square" stroke-miterlimit="3"/></g></svg>